<svg version="1.1" id="Layer_1" xmlns="http://www.w3.org/2000/svg" xmlns:xlink="http://www.w3.org/1999/xlink" x="0px" y="0px"
	 width="100%" viewBox="0 0 1024 1024" enable-background="new 0 0 1024 1024" xml:space="preserve">
<path fill="#000000" opacity="1.000000" stroke="none" 
	d="
M592.230957,699.223022 
	C597.173645,693.346130 601.974426,687.810669 606.533875,682.083130 
	C608.889160,679.124451 611.468628,677.799011 615.424072,677.808350 
	C650.753052,677.891357 686.111633,678.616638 721.404358,677.439697 
	C762.405396,676.072388 800.615417,647.705078 808.653259,603.231140 
	C813.493530,576.449402 810.569031,550.724365 795.501465,527.497009 
	C781.521179,505.945709 761.201721,493.739807 735.959778,489.259155 
	C721.227295,486.644073 706.421021,487.525818 691.631409,487.425812 
	C671.467590,487.289459 651.302124,487.381836 631.137390,487.394958 
	C623.632507,487.399811 623.357849,487.698273 623.351379,495.364685 
	C623.342834,505.530365 623.758057,515.715515 623.279053,525.858643 
	C619.624695,603.239014 590.183533,667.781128 527.292786,714.935547 
	C497.081055,737.587891 462.835907,751.280640 425.293243,756.459412 
	C370.531189,764.013428 318.929108,754.571838 271.019348,726.967957 
	C236.410126,707.027405 209.311508,679.164429 188.446091,645.174133 
	C169.851105,614.882324 157.671494,582.133606 151.922455,547.128052 
	C147.706223,521.455627 147.050201,495.606018 149.444092,469.606598 
	C151.808334,443.929199 157.557770,419.160461 166.636063,395.095886 
	C180.068817,359.488708 200.357956,328.321381 227.465195,301.637390 
	C260.100739,269.511383 298.650848,248.192902 343.661530,239.122360 
	C365.432129,234.735153 387.410583,233.600311 409.635559,235.442734 
	C449.903717,238.780945 485.992310,252.635803 517.853455,277.341064 
	C528.393860,285.514130 527.243042,283.375061 519.316772,292.152069 
	C507.480835,305.258331 495.501373,318.237396 483.830750,331.488800 
	C480.932281,334.779846 479.128632,335.341797 475.449127,332.368347 
	C455.992767,316.645386 433.775024,306.779572 408.969391,303.560883 
	C383.272369,300.226532 358.089294,303.293884 334.089264,313.146484 
	C274.681763,337.534821 241.645111,383.809143 226.399872,444.482697 
	C221.012894,465.921997 219.101425,487.840210 220.480499,509.814728 
	C223.281250,554.442505 237.190308,595.091309 266.179291,629.843567 
	C292.776611,661.728638 326.676208,681.495850 367.665894,687.282898 
	C410.880463,693.384094 450.721191,683.305969 485.762573,656.756836 
	C521.222595,629.890564 541.763611,593.689087 550.627075,550.515442 
	C553.438538,536.820923 554.701050,522.950256 554.691589,508.936493 
	C554.643738,438.443268 554.335938,367.946594 554.959290,297.458588 
	C555.153137,275.535217 546.356262,259.019592 530.520752,245.198914 
	C528.026978,243.022430 525.518066,240.863266 523.080078,238.751465 
	C523.752686,237.267624 524.849609,237.568909 525.800476,237.569244 
	C586.127686,237.590805 646.457520,237.305893 706.781006,237.794312 
	C733.912109,238.013977 760.029175,243.840927 783.494934,258.212006 
	C812.621948,276.050262 830.537231,301.773682 836.381653,335.657837 
	C839.502441,353.751068 839.118713,371.672577 834.621094,389.528076 
	C829.084229,411.509918 815.931213,427.836731 797.508118,440.361725 
	C796.682678,440.922882 795.821472,441.433075 795.012817,442.016724 
	C793.807556,442.886566 792.634338,443.800659 791.131042,444.934723 
	C796.899536,447.614868 802.578918,449.889130 807.915955,452.792725 
	C841.078918,470.834747 861.981873,498.739227 871.670898,534.807495 
	C883.511047,578.883789 881.513123,622.249573 860.310791,663.339661 
	C837.515747,707.516113 800.547241,733.388611 752.181030,743.289246 
	C737.326355,746.330078 722.193237,747.137268 707.044312,747.158752 
	C652.549805,747.236145 598.055298,747.267151 543.560791,747.289612 
	C541.799500,747.290283 539.912781,747.716370 537.276001,745.631592 
	C557.346497,732.024536 575.914124,717.179749 592.230957,699.223022 
M756.925598,400.423035 
	C771.316223,383.990997 774.190247,364.895691 768.894653,344.449493 
	C762.920166,321.381744 742.249207,306.141479 717.814514,305.534698 
	C688.360168,304.803345 658.873535,305.441620 629.402649,305.239655 
	C624.445923,305.205688 623.244263,307.001129 623.265747,311.650604 
	C623.422607,345.617981 623.435364,379.586914 623.253662,413.554047 
	C623.227905,418.375183 624.702698,419.825439 629.492859,419.789185 
	C656.132935,419.587677 682.777466,419.881927 709.416260,419.603912 
	C727.362488,419.416595 743.285339,413.503235 756.925598,400.423035 
z"/>
</svg>